<svg width="128" height="128" viewBox="0 0 128 128" fill="none" xmlns="http://www.w3.org/2000/svg">
<g clip-path="url(#clip0_3_454)">
<rect width="128" height="128" fill="white"/>
<path d="M145.5 96.8108C145.5 128.076 119.352 153.5 87 153.5C54.6477 153.5 28.5 128.076 28.5 96.8108C28.5 65.5452 54.6477 40.1216 87 40.1216C119.352 40.1216 145.5 65.5452 145.5 96.8108Z" fill="#7DD866" stroke="#36662B" stroke-width="3"/>
<path d="M67.0748 67.0289C67.0748 77.2916 58.4832 85.689 47.7874 85.689C37.0916 85.689 28.5 77.2916 28.5 67.0289C28.5 56.7663 37.0916 48.3689 47.7874 48.3689C58.4832 48.3689 67.0748 56.7663 67.0748 67.0289Z" fill="white" stroke="#36662B" stroke-width="3"/>
<rect x="1.69794" y="1.2862" width="49.3421" height="20.5496" rx="10.2748" transform="matrix(0.991174 -0.13257 0.140788 0.99004 33.4481 71.4567)" fill="#FFDE31" stroke="#BCA428" stroke-width="3"/>
<mask id="path-5-inside-1_3_454" fill="white">
<path fill-rule="evenodd" clip-rule="evenodd" d="M71.7474 47.9525C70.8895 46.9485 70.3148 45.6872 70.1636 44.2831L67.6684 21.1067C67.2717 17.4219 69.9426 14.1491 73.634 13.7966C77.3254 13.4441 80.6395 16.1454 81.0362 19.8302L81.1513 20.8987C82.6895 17.5228 86.7138 15.9766 90.1538 17.445C93.3768 18.8207 94.9461 22.3558 93.8886 25.5823L94.1593 25.3815C97.105 23.1957 101.35 23.7731 103.64 26.6713C105.931 29.5694 105.4 33.6908 102.454 35.8766L83.1654 50.1901C81.7718 51.2243 80.0873 51.6399 78.4566 51.4838C77.3264 51.599 76.1536 51.4393 75.0418 50.9648C73.5656 50.3346 72.4362 49.2515 71.7474 47.9525Z"/>
</mask>
<path fill-rule="evenodd" clip-rule="evenodd" d="M71.7474 47.9525C70.8895 46.9485 70.3148 45.6872 70.1636 44.2831L67.6684 21.1067C67.2717 17.4219 69.9426 14.1491 73.634 13.7966C77.3254 13.4441 80.6395 16.1454 81.0362 19.8302L81.1513 20.8987C82.6895 17.5228 86.7138 15.9766 90.1538 17.445C93.3768 18.8207 94.9461 22.3558 93.8886 25.5823L94.1593 25.3815C97.105 23.1957 101.35 23.7731 103.64 26.6713C105.931 29.5694 105.4 33.6908 102.454 35.8766L83.1654 50.1901C81.7718 51.2243 80.0873 51.6399 78.4566 51.4838C77.3264 51.599 76.1536 51.4393 75.0418 50.9648C73.5656 50.3346 72.4362 49.2515 71.7474 47.9525Z" fill="#D0DB4F"/>
<path d="M71.7474 47.9525L74.3996 46.5674L74.2433 46.2727L74.0263 46.0188L71.7474 47.9525ZM70.1636 44.2831L73.1497 43.9864L70.1636 44.2831ZM67.6684 21.1067L70.6545 20.81L67.6684 21.1067ZM73.634 13.7966L73.9436 16.7796L73.634 13.7966ZM81.0362 19.8302L78.0501 20.1269L78.0501 20.1269L81.0362 19.8302ZM81.1513 20.8987L78.1651 21.1954L79.3424 32.1303L83.887 22.1568L81.1513 20.8987ZM90.1538 17.445L88.9911 20.1987L90.1538 17.445ZM93.8886 25.5823L91.0334 24.6305L88.0801 33.6413L95.6932 27.992L93.8886 25.5823ZM94.1593 25.3815L92.3548 22.9718L92.3548 22.9718L94.1593 25.3815ZM103.64 26.6713L105.993 24.8271L105.993 24.8271L103.64 26.6713ZM102.454 35.8766L104.259 38.2862L104.259 38.2862L102.454 35.8766ZM83.1654 50.1901L84.9699 52.5998L83.1654 50.1901ZM78.4566 51.4838L78.7198 48.5009L78.4236 48.4725L78.1279 48.5026L78.4566 51.4838ZM75.0418 50.9648L73.8791 53.7185L73.8791 53.7185L75.0418 50.9648ZM74.0263 46.0188C73.5507 45.4621 73.2338 44.7672 73.1497 43.9864L67.1775 44.5798C67.3958 46.6072 68.2284 48.4349 69.4684 49.8862L74.0263 46.0188ZM73.1497 43.9864L70.6545 20.81L64.6823 21.4034L67.1775 44.5798L73.1497 43.9864ZM70.6545 20.81C70.4356 18.7766 71.9065 16.9742 73.9436 16.7796L73.3244 10.8135C67.9786 11.324 64.1078 16.0673 64.6823 21.4034L70.6545 20.81ZM73.9436 16.7796C75.9896 16.5843 77.8302 18.0846 78.0501 20.1269L84.0223 19.5336C83.4488 14.2063 78.6612 10.3039 73.3244 10.8135L73.9436 16.7796ZM78.0501 20.1269L78.1651 21.1954L84.1374 20.602L84.0223 19.5335L78.0501 20.1269ZM91.3165 14.6913C86.3763 12.5825 80.6244 14.7928 78.4156 19.6405L83.887 22.1568C84.7546 20.2528 87.0513 19.3707 88.9911 20.1987L91.3165 14.6913ZM96.7439 26.5341C98.2828 21.8388 95.9904 16.6863 91.3165 14.6913L88.9911 20.1987C90.7631 20.9551 91.6095 22.8727 91.0334 24.6305L96.7439 26.5341ZM92.3548 22.9718L92.0841 23.1727L95.6932 27.992L95.9639 27.7911L92.3548 22.9718ZM105.993 24.8271C102.69 20.6486 96.6018 19.8203 92.3548 22.9718L95.9639 27.7911C97.6081 26.571 100.009 26.8976 101.288 28.5154L105.993 24.8271ZM104.259 38.2862C108.555 35.0982 109.334 29.0541 105.993 24.8271L101.288 28.5154C102.528 30.0847 102.245 32.2833 100.65 33.4669L104.259 38.2862ZM84.9699 52.5998L104.259 38.2862L100.65 33.4669L81.3609 47.7805L84.9699 52.5998ZM78.1934 54.4668C80.5229 54.6897 82.9525 54.0968 84.9699 52.5998L81.3609 47.7805C80.5911 48.3517 79.6518 48.59 78.7198 48.5009L78.1934 54.4668ZM73.8791 53.7185C75.4786 54.4012 77.1663 54.63 78.7853 54.465L78.1279 48.5026C77.4865 48.568 76.8286 48.4775 76.2045 48.2111L73.8791 53.7185ZM69.0952 49.3375C70.1014 51.235 71.7498 52.8096 73.8791 53.7185L76.2045 48.2111C75.3813 47.8597 74.7711 47.268 74.3996 46.5674L69.0952 49.3375Z" fill="#36662B" mask="url(#path-5-inside-1_3_454)"/>
<path d="M119.043 64.2798C119.043 74.5425 110.452 82.9399 99.7559 82.9399C89.0601 82.9399 80.4685 74.5425 80.4685 64.2798C80.4685 54.0172 89.0601 45.6198 99.7559 45.6198C110.452 45.6198 119.043 54.0172 119.043 64.2798Z" fill="white" stroke="#36662B" stroke-width="3"/>
<rect x="72" y="49.4808" width="43.5256" height="12.7652" rx="6.38259" transform="rotate(-18.0424 72 49.4808)" fill="#36662B"/>
<rect width="33.6618" height="12.7652" rx="6.38259" transform="matrix(-0.950827 -0.309721 -0.309721 0.950827 69.9602 49.4258)" fill="#36662B"/>
</g>
<defs>
<clipPath id="clip0_3_454">
<rect width="128" height="128" fill="white"/>
</clipPath>
</defs>
</svg>
