<svg width="128" height="128" viewBox="0 0 128 128" fill="none" xmlns="http://www.w3.org/2000/svg">
<rect width="128" height="128" fill="white"/>
<path fill-rule="evenodd" clip-rule="evenodd" d="M56.1518 32.2501C55.4864 35.4528 57.0475 40.0004 60.2783 42.6611C61.9836 44.0654 62.2276 46.5863 60.8232 48.2916C59.4189 49.9969 56.898 50.2409 55.1927 48.8365C49.9235 44.4972 46.9847 37.0448 48.3192 30.6225C49.0177 27.2607 50.9212 24.1239 54.2904 22.1277C57.5896 20.173 61.8368 19.5798 66.8012 20.289C68.9881 20.6014 70.5077 22.6275 70.1953 24.8145C69.8829 27.0014 67.8568 28.521 65.6698 28.2086C61.8842 27.6678 59.6314 28.262 58.3681 29.0105C57.1748 29.7174 56.4533 30.7993 56.1518 32.2501Z" fill="#006096" stroke="#00283F" stroke-width="2" stroke-linecap="round"/>
<path fill-rule="evenodd" clip-rule="evenodd" d="M76.144 87.7055C78.1009 86.6804 80.5183 87.4358 81.5433 89.3928L85.3899 96.7362L88.5641 95.5154C90.626 94.7224 92.9404 95.751 93.7334 97.8129C94.5264 99.8748 93.4978 102.189 91.4359 102.982L85.7674 105.162C83.3978 106.074 80.7214 105.065 79.5433 102.816L74.4567 93.1048C73.4316 91.1479 74.1871 88.7305 76.144 87.7055Z" fill="#FFDE31" stroke="#BCA428" stroke-width="2" stroke-linecap="round"/>
<path d="M104.645 51.8582C97.0324 61.4153 87.9759 65.1326 80.9953 66.1336C77.7269 66.6023 75.014 70.3919 76.942 73.0724C80.7335 78.344 87.3512 83.8833 98.7752 81.7986C114.902 78.8556 114.451 62.9006 111.169 52.5044C110.249 49.5932 106.547 49.4701 104.645 51.8582Z" fill="#006096" stroke="#00283F" stroke-width="2" stroke-linecap="round"/>
<rect x="33" y="34.2488" width="63" height="63" rx="31.5" fill="#01BBE4" stroke="#00283F" stroke-width="2"/>
<circle cx="61" cy="55" r="8" fill="white" stroke="#00283F" stroke-width="2"/>
<circle cx="89" cy="52" r="8" fill="white" stroke="#00283F" stroke-width="2"/>
<path d="M23.3554 49.8582C30.9676 59.4153 40.0241 63.1326 47.0047 64.1336C50.2731 64.6023 52.986 68.3919 51.058 71.0724C47.2665 76.344 40.6488 81.8833 29.2248 79.7986C13.098 76.8556 13.5486 60.9006 16.8315 50.5044C17.7508 47.5932 21.4534 47.4701 23.3554 49.8582Z" fill="#006096" stroke="#00283F" stroke-width="2" stroke-linecap="round"/>
<path fill-rule="evenodd" clip-rule="evenodd" d="M87.4669 57.791L87.7488 57.8503C90.0967 58.3439 91.5999 60.6473 91.1063 62.9952C90.6127 65.343 88.3093 66.8462 85.9614 66.3526L75.1834 64.0868C73.7794 63.7916 72.6774 62.8492 72.1239 61.6371C71.0337 59.6018 71.7287 57.0491 73.7327 55.8561L83.1962 50.2222C85.2577 48.9949 87.9238 49.6712 89.1511 51.7327C90.3783 53.7942 89.7021 56.4603 87.6405 57.6876L87.4669 57.791Z" fill="#FFDE31"/>
<path d="M87.4669 57.791L86.9553 56.9317L84.7536 58.2425L87.2611 58.7696L87.4669 57.791ZM87.7488 57.8503L87.5431 58.8289H87.5431L87.7488 57.8503ZM91.1063 62.9952L90.1277 62.7894L91.1063 62.9952ZM85.9614 66.3526L85.7557 67.3312L85.9614 66.3526ZM75.1834 64.0868L75.3892 63.1082H75.3892L75.1834 64.0868ZM72.1239 61.6371L73.0335 61.2217L73.0204 61.1929L73.0054 61.1649L72.1239 61.6371ZM73.7327 55.8561L73.2212 54.9968L73.7327 55.8561ZM83.1962 50.2222L82.6846 49.3629V49.3629L83.1962 50.2222ZM89.1511 51.7327L90.0103 51.2212L89.1511 51.7327ZM87.6405 57.6876L88.1521 58.5469L88.1521 58.5469L87.6405 57.6876ZM87.2611 58.7696L87.5431 58.8289L87.9546 56.8717L87.6726 56.8124L87.2611 58.7696ZM87.5431 58.8289C89.3505 59.2088 90.5076 60.982 90.1277 62.7894L92.0849 63.2009C92.6921 60.3126 90.8429 57.4789 87.9546 56.8717L87.5431 58.8289ZM90.1277 62.7894C89.7477 64.5968 87.9745 65.754 86.1671 65.374L85.7557 67.3312C88.644 67.9384 91.4777 66.0892 92.0849 63.2009L90.1277 62.7894ZM86.1671 65.374L75.3892 63.1082L74.9777 65.0654L85.7557 67.3312L86.1671 65.374ZM75.3892 63.1082C74.309 62.8811 73.4608 62.1574 73.0335 61.2217L71.2143 62.0525C71.894 63.541 73.2498 64.7021 74.9777 65.0654L75.3892 63.1082ZM73.0054 61.1649C72.1665 59.5989 72.7018 57.6336 74.2442 56.7153L73.2212 54.9968C70.7556 56.4646 69.9009 59.6048 71.2424 62.1093L73.0054 61.1649ZM74.2442 56.7153L83.7077 51.0815L82.6846 49.3629L73.2212 54.9968L74.2442 56.7153ZM83.7077 51.0815C85.2947 50.1367 87.3471 50.6573 88.2918 52.2443L90.0103 51.2212C88.5005 48.6851 85.2207 47.8531 82.6846 49.3629L83.7077 51.0815ZM88.2918 52.2443C89.2366 53.8312 88.716 55.8836 87.129 56.8283L88.1521 58.5469C90.6882 57.0371 91.5201 53.7573 90.0103 51.2212L88.2918 52.2443ZM87.129 56.8283L86.9553 56.9317L87.9784 58.6503L88.1521 58.5469L87.129 56.8283Z" fill="#BCA428"/>
<path fill-rule="evenodd" clip-rule="evenodd" d="M54.1363 85.4136C56.2545 86.0412 57.4628 88.267 56.8352 90.3851L53.0915 103.02C52.3634 105.477 49.8951 106.986 47.3761 106.514L40.2628 105.18C38.0915 104.773 36.6614 102.683 37.0685 100.512C37.4756 98.3403 39.5658 96.9102 41.7371 97.3173L46.19 98.1522L49.1648 88.1124C49.7924 85.9943 52.0182 84.786 54.1363 85.4136Z" fill="#FFDE31" stroke="#BCA428" stroke-width="2" stroke-linecap="round"/>
</svg>
