<svg width="128" height="128" viewBox="0 0 128 128" fill="none" xmlns="http://www.w3.org/2000/svg">
<g clip-path="url(#clip0_7_722)">
<rect width="128" height="128" fill="white"/>
<rect x="1.5" y="61.5" width="125" height="125" rx="62.5" fill="#D95B00" stroke="#592500" stroke-width="3"/>
<rect x="20.5" y="20.5" width="87" height="87" rx="43.5" fill="#F0B51D" stroke="#592500" stroke-width="3"/>
<path d="M56.5 60C56.5 70.7046 47.3884 79.5 36 79.5C24.6116 79.5 15.5 70.7046 15.5 60C15.5 49.2954 24.6116 40.5 36 40.5C47.3884 40.5 56.5 49.2954 56.5 60Z" fill="white" stroke="#592500" stroke-width="3"/>
<path d="M112.5 60C112.5 70.7046 103.388 79.5 92 79.5C80.6116 79.5 71.5 70.7046 71.5 60C71.5 49.2954 80.6116 40.5 92 40.5C103.388 40.5 112.5 49.2954 112.5 60Z" fill="white" stroke="#592500" stroke-width="3"/>
<rect x="56.5" y="67.5" width="15" height="21" rx="7.5" fill="#FFDE31" stroke="#592500" stroke-width="3"/>
<mask id="path-6-inside-1_7_722" fill="white">
<path fill-rule="evenodd" clip-rule="evenodd" d="M57.124 7.68123C57.7409 4.44571 60.5848 2 64 2C67.4588 2 70.3317 4.50859 70.8985 7.8056C73.4523 6.66672 76.5253 7.08375 78.7522 9.13987C81.8267 11.9785 82.1245 16.8665 79.4172 20.0573L70.0357 31.1148C69.3372 31.9381 68.5068 32.568 67.6064 33.0007C66.5531 33.6351 65.3192 34 64 34C61.8637 34 59.9509 33.043 58.667 31.5344C58.5352 31.4006 58.4072 31.2608 58.2834 31.1148L48.9019 20.0573C46.1946 16.8665 46.4924 11.9785 49.5669 9.13987C51.7083 7.16275 54.6319 6.70118 57.124 7.68123Z"/>
</mask>
<path fill-rule="evenodd" clip-rule="evenodd" d="M57.124 7.68123C57.7409 4.44571 60.5848 2 64 2C67.4588 2 70.3317 4.50859 70.8985 7.8056C73.4523 6.66672 76.5253 7.08375 78.7522 9.13987C81.8267 11.9785 82.1245 16.8665 79.4172 20.0573L70.0357 31.1148C69.3372 31.9381 68.5068 32.568 67.6064 33.0007C66.5531 33.6351 65.3192 34 64 34C61.8637 34 59.9509 33.043 58.667 31.5344C58.5352 31.4006 58.4072 31.2608 58.2834 31.1148L48.9019 20.0573C46.1946 16.8665 46.4924 11.9785 49.5669 9.13987C51.7083 7.16275 54.6319 6.70118 57.124 7.68123Z" fill="#FF7043"/>
<path d="M57.124 7.68123L56.0261 10.4731L59.3934 11.7973L60.071 8.24304L57.124 7.68123ZM70.8985 7.8056L67.9419 8.31389L68.5957 12.1173L72.1204 10.5455L70.8985 7.8056ZM78.7522 9.13987L76.7171 11.344L78.7522 9.13987ZM79.4172 20.0573L81.7048 21.9982L79.4172 20.0573ZM70.0357 31.1148L67.7481 29.1739L70.0357 31.1148ZM67.6064 33.0007L66.307 30.2967L66.1796 30.3579L66.0586 30.4308L67.6064 33.0007ZM58.667 31.5344L60.9516 29.59L60.8808 29.5069L60.8042 29.4291L58.667 31.5344ZM58.2834 31.1148L60.571 29.1739L60.571 29.1739L58.2834 31.1148ZM48.9019 20.0573L51.1895 18.1165L48.9019 20.0573ZM49.5669 9.13987L51.602 11.344L49.5669 9.13987ZM64 -1C59.1179 -1 55.0586 2.49561 54.1771 7.11943L60.071 8.24304C60.4231 6.39582 62.0518 5 64 5V-1ZM73.8551 7.29731C73.045 2.58512 68.9442 -1 64 -1V5C65.9734 5 67.6184 6.43206 67.9419 8.31389L73.8551 7.29731ZM80.7873 6.9357C77.6649 4.05286 73.3076 3.44645 69.6766 5.0657L72.1204 10.5455C73.597 9.88698 75.3856 10.1146 76.7171 11.344L80.7873 6.9357ZM81.7048 21.9982C85.4523 17.5812 85.0432 10.8651 80.7873 6.9357L76.7171 11.344C78.6102 13.092 78.7966 16.1517 77.1296 18.1165L81.7048 21.9982ZM72.3233 33.0557L81.7048 21.9982L77.1296 18.1165L67.7481 29.1739L72.3233 33.0557ZM68.9058 35.7047C70.1845 35.0902 71.3518 34.2007 72.3233 33.0557L67.7481 29.1739C67.3226 29.6755 66.8292 30.0458 66.307 30.2967L68.9058 35.7047ZM64 37C65.8797 37 67.6468 36.4785 69.1542 35.5706L66.0586 30.4308C65.4594 30.7917 64.7586 31 64 31V37ZM56.3824 33.4788C58.212 35.6285 60.9474 37 64 37V31C62.78 31 61.6899 30.4575 60.9516 29.59L56.3824 33.4788ZM60.8042 29.4291C60.7247 29.3484 60.6469 29.2634 60.571 29.1739L55.9958 33.0557C56.1676 33.2581 56.3457 33.4528 56.5297 33.6397L60.8042 29.4291ZM60.571 29.1739L51.1895 18.1165L46.6143 21.9982L55.9958 33.0557L60.571 29.1739ZM51.1895 18.1165C49.5225 16.1517 49.7089 13.092 51.602 11.344L47.5318 6.9357C43.2759 10.8651 42.8668 17.5812 46.6143 21.9982L51.1895 18.1165ZM51.602 11.344C52.8835 10.1608 54.586 9.90677 56.0261 10.4731L58.222 4.88936C54.6778 3.49559 50.5331 4.16466 47.5318 6.9357L51.602 11.344Z" fill="#AE1818" mask="url(#path-6-inside-1_7_722)"/>
<path fill-rule="evenodd" clip-rule="evenodd" d="M62.0011 65.9246C62.0428 64.5445 63.1953 63.4595 64.5754 63.5011C68.7516 63.6272 72.1881 65.241 74.2985 68.8139C76.27 72.1516 76.8559 76.8415 76.4952 82.6548C76.4097 84.0329 75.2232 85.0807 73.8452 84.9952C72.4671 84.9097 71.4193 83.7232 71.5048 82.3452C71.8464 76.8408 71.1924 73.3866 69.9934 71.3568C68.9333 69.562 67.2688 68.5847 64.4246 68.4989C63.0445 68.4572 61.9595 67.3047 62.0011 65.9246Z" fill="#FF5555" stroke="#AE1818" stroke-width="3" stroke-linecap="round"/>
</g>
<defs>
<clipPath id="clip0_7_722">
<rect width="128" height="128" fill="white"/>
</clipPath>
</defs>
</svg>
