<svg width="128" height="128" viewBox="0 0 128 128" fill="none" xmlns="http://www.w3.org/2000/svg">
<rect width="128" height="128" fill="white"/>
<path fill-rule="evenodd" clip-rule="evenodd" d="M68.1951 82.2377C70.3114 81.8219 72.3683 83.1785 72.7895 85.2677C74.0884 91.7111 74.3166 96.0154 73.5774 101.449H77.3298C79.4875 101.449 81.2368 103.176 81.2368 105.306C81.2368 107.436 79.4875 109.163 77.3298 109.163H61.1437C58.986 109.163 57.2368 107.436 57.2368 105.306C57.2368 103.176 58.986 101.449 61.1437 101.449H65.684C66.4859 96.3283 66.3314 92.7535 65.1259 86.7734C64.7047 84.6842 66.0788 82.6535 68.1951 82.2377Z" fill="#FFDE31" stroke="#BCA428" stroke-width="2" stroke-linecap="round"/>
<path d="M24.4943 51.3535C24.2737 49.1554 25.8768 47.1947 28.0749 46.974L62.8999 43.4788C75.539 42.2103 86.8133 51.428 88.0818 64.067C89.3503 76.7061 80.1327 87.9804 67.4936 89.2489L57.5436 90.2475C41.6074 91.847 27.392 80.2247 25.7925 64.2885L24.4943 51.3535Z" fill="#FF7043" stroke="#AE1818" stroke-width="2"/>
<path d="M29.7713 55.8416C30.3385 52.232 33.7245 49.7657 37.3341 50.3329L57.4135 53.4881C65.1783 54.7082 70.4838 61.9919 69.2636 69.7567C68.0435 77.5215 60.7598 82.8269 52.9951 81.6068L46.7171 80.6203C35.4852 78.8554 27.8106 68.3193 29.5756 57.0873L29.7713 55.8416Z" fill="#FF4343" stroke="#AE1818" stroke-width="2"/>
<mask id="path-4-inside-1_2_126" fill="white">
<path fill-rule="evenodd" clip-rule="evenodd" d="M74.4132 19.148L52.3294 19.0176C50.7041 19.008 49.3604 20.2886 49.3365 21.9137C49.1594 33.9508 50.7426 52.6046 70.9607 56.6794C73.9489 57.2816 76.3577 57.2898 78.271 56.8184C87.3624 55.4792 94.3654 47.6725 94.4213 38.1998C94.483 27.7433 86.0565 19.2167 75.6001 19.155C75.3152 19.1533 75.0317 19.1579 74.7498 19.1687C74.6389 19.1556 74.5265 19.1486 74.4132 19.148Z"/>
</mask>
<path fill-rule="evenodd" clip-rule="evenodd" d="M74.4132 19.148L52.3294 19.0176C50.7041 19.008 49.3604 20.2886 49.3365 21.9137C49.1594 33.9508 50.7426 52.6046 70.9607 56.6794C73.9489 57.2816 76.3577 57.2898 78.271 56.8184C87.3624 55.4792 94.3654 47.6725 94.4213 38.1998C94.483 27.7433 86.0565 19.2167 75.6001 19.155C75.3152 19.1533 75.0317 19.1579 74.7498 19.1687C74.6389 19.1556 74.5265 19.1486 74.4132 19.148Z" fill="#FF4343"/>
<path d="M49.3365 21.9137L47.3367 21.8843L49.3365 21.9137ZM70.9607 56.6794L70.5656 58.6399L70.5656 58.6399L70.9607 56.6794ZM78.271 56.8184L77.9796 54.8398L77.8852 54.8537L77.7926 54.8765L78.271 56.8184ZM74.7498 19.1687L74.5156 21.1549L74.6705 21.1732L74.8263 21.1672L74.7498 19.1687ZM52.3176 21.0176L74.4014 21.1479L74.425 17.148L52.3412 17.0176L52.3176 21.0176ZM51.3363 21.9431C51.3436 21.4473 51.7581 21.0143 52.3176 21.0176L52.3412 17.0176C49.6502 17.0017 47.3772 19.13 47.3367 21.8843L51.3363 21.9431ZM71.3559 54.7188C61.9418 52.8215 56.9978 47.6153 54.3348 41.4855C51.6128 35.22 51.2485 27.9097 51.3363 21.9431L47.3367 21.8843C47.2474 27.9548 47.5862 35.99 50.666 43.0793C53.8049 50.3044 59.7615 56.4625 70.5656 58.6399L71.3559 54.7188ZM77.7926 54.8765C76.2545 55.2554 74.1607 55.2841 71.3559 54.7188L70.5656 58.6399C73.737 59.2791 76.461 59.3242 78.7495 58.7603L77.7926 54.8765ZM92.4214 38.188C92.3713 46.6582 86.1088 53.6423 77.9796 54.8398L78.5625 58.7971C88.6159 57.3162 96.3594 48.6867 96.4213 38.2116L92.4214 38.188ZM75.5883 21.1549C84.9401 21.2102 92.4766 28.8361 92.4214 38.188L96.4213 38.2116C96.4895 26.6506 87.1728 17.2233 75.6119 17.155L75.5883 21.1549ZM74.8263 21.1672C75.0788 21.1576 75.3328 21.1534 75.5883 21.1549L75.6119 17.155C75.2975 17.1532 74.9846 17.1583 74.6734 17.1702L74.8263 21.1672ZM74.4014 21.1479C74.4402 21.1482 74.4783 21.1506 74.5156 21.1549L74.9841 17.1825C74.7995 17.1607 74.6129 17.1491 74.425 17.148L74.4014 21.1479Z" fill="#AE1818" mask="url(#path-4-inside-1_2_126)"/>
<circle cx="76.4629" cy="33.3603" r="6.25778" transform="rotate(0.338239 76.4629 33.3603)" fill="white" stroke="#AE1818" stroke-width="2"/>
<path fill-rule="evenodd" clip-rule="evenodd" d="M82.8294 40.6982C82.725 38.0861 84.7578 35.884 87.3699 35.7796L99.3607 35.3002C101.973 35.1958 104.175 37.2287 104.279 39.8407C104.384 42.4528 102.351 44.6549 99.7388 44.7594L87.748 45.2387C85.1359 45.3431 82.9338 43.3102 82.8294 40.6982Z" fill="#FFDE31" stroke="#BCA428" stroke-width="2" stroke-linecap="round"/>
<path fill-rule="evenodd" clip-rule="evenodd" d="M45.2784 82.2377C43.1622 81.8219 41.1052 83.1785 40.684 85.2677C39.3851 91.7111 39.1569 96.0154 39.8961 101.449H36.1437C33.986 101.449 32.2368 103.176 32.2368 105.306C32.2368 107.436 33.986 109.163 36.1437 109.163H52.3298C54.4875 109.163 56.2368 107.436 56.2368 105.306C56.2368 103.176 54.4875 101.449 52.3298 101.449H47.7895C46.9876 96.3283 47.1421 92.7535 48.3477 86.7734C48.7688 84.6842 47.3947 82.6535 45.2784 82.2377Z" fill="#FFDE31" stroke="#BCA428" stroke-width="2" stroke-linecap="round"/>
</svg>
